{
  "source": "C:\\Users\\Peter\\Desktop\\stuff\\MIUN\\quantitative_research\\video_compression\\videos\\BVI-HD\\BVI-HD_CDVL_videos\\ORIG\\DiverFishAndRock_1920x1080_30fps.mp4",
  "output": "C:\\Users\\Peter\\Desktop\\stuff\\MIUN\\quantitative_research\\video_compression\\compressed_videos\\BVI-HD\\h264\\2.5\\DiverFishAndRock_1920x1080_30fps_h264.mp4",
  "codec": "h264",
  "ok": "Input #0, mov,mp4,m4a,3gp,3g2,mj2, from 'C:\\Users\\Peter\\Desktop\\stuff\\MIUN\\quantitative_research\\video_compression\\videos\\BVI-HD\\BVI-HD_CDVL_videos\\ORIG\\DiverFishAndRock_1920x1080_30fps.mp4':\n  Metadata:\n    major_brand     : isom\n    minor_version   : 512\n    compatible_brands: isomiso2avc1mp41\n    encoder         : Lavf54.28.101\n  Duration: 00:00:05.00, start: 0.000000, bitrate: 228854 kb/s\n  Stream #0:0[0x1](und): Video: h264 (High 4:4:4 Predictive) (avc1 / 0x31637661), yuv420p(progressive), 1920x1080, 228851 kb/s, 30 fps, 30 tbr, 30 tbn (default)\n    Metadata:\n      handler_name    : VideoHandler\n      vendor_id       : [0][0][0][0]\n[out#0/mp4 @ 0000016ac988c580] Codec AVOption b:a (set bitrate (in bits/s)) has not been used for any stream. The most likely reason is either wrong type (e.g. a video option with no video streams) or that it is a private option of some decoder which was not actually used for any stream.\nStream mapping:\n  Stream #0:0 -> #0:0 (h264 (native) -> h264 (libx264))\nPress [q] to stop, [?] for help\n[libx264 @ 0000016acb71b240] using cpu capabilities: MMX2 SSE2Fast SSSE3 SSE4.2 AVX FMA3 BMI2 AVX2\n[libx264 @ 0000016acb71b240] profile High, level 5.0, 4:2:0, 8-bit\n[libx264 @ 0000016acb71b240] 264 - core 165 r3222 b35605a - H.264/MPEG-4 AVC codec - Copyleft 2003-2025 - http://www.videolan.org/x264.html - options: cabac=1 ref=5 deblock=1:0:0 analyse=0x3:0x113 me=hex subme=8 psy=1 psy_rd=1.00:0.00 mixed_ref=1 me_range=16 chroma_me=1 trellis=2 8x8dct=1 cqm=0 deadzone=21,11 fast_pskip=1 chroma_qp_offset=-2 threads=18 lookahead_threads=3 sliced_threads=0 nr=0 decimate=1 interlaced=0 bluray_compat=0 constrained_intra=0 bframes=3 b_pyramid=2 b_adapt=1 b_bias=0 direct=3 weightb=1 open_gop=0 weightp=2 keyint=250 keyint_min=25 scenecut=40 intra_refresh=0 rc_lookahead=50 rc=cbr mbtree=1 bitrate=2500 ratetol=1.0 qcomp=0.60 qpmin=0 qpmax=69 qpstep=4 vbv_maxrate=2500 vbv_bufsize=2500 nal_hrd=none filler=0 ip_ratio=1.40 aq=1:1.00\nOutput #0, mp4, to 'C:\\Users\\Peter\\Desktop\\stuff\\MIUN\\quantitative_research\\video_compression\\compressed_videos\\BVI-HD\\h264\\2.5\\DiverFishAndRock_1920x1080_30fps_h264.mp4':\n  Metadata:\n    major_brand     : isom\n    minor_version   : 512\n    compatible_brands: isomiso2avc1mp41\n    encoder         : Lavf62.3.100\n  Stream #0:0(und): Video: h264 (avc1 / 0x31637661), yuv420p(tv, progressive), 1920x1080, q=2-31, 2500 kb/s, 30 fps, 15360 tbn (default)\n    Metadata:\n      encoder         : Lavc62.11.100 libx264\n      handler_name    : VideoHandler\n      vendor_id       : [0][0][0][0]\n    Side data:\n      cpb: bitrate max/min/avg: 2500000/0/2500000 buffer size: 2500000 vbv_delay: N/A\nframe=    0 fps=0.0 q=0.0 size=       0KiB time=N/A bitrate=N/A speed=N/A elapsed=0:00:00.50    \nframe=    0 fps=0.0 q=0.0 size=       0KiB time=N/A bitrate=N/A speed=N/A elapsed=0:00:01.04    \nframe=   20 fps= 12 q=36.0 size=       0KiB time=00:00:00.46 bitrate=   0.8kbits/s speed=0.291x elapsed=0:00:01.60    \nframe=   48 fps= 22 q=36.0 size=     256KiB time=00:00:01.40 bitrate=1498.2kbits/s speed=0.651x elapsed=0:00:02.15    \nframe=   80 fps= 29 q=36.0 size=     512KiB time=00:00:02.60 bitrate=1613.3kbits/s speed=0.955x elapsed=0:00:02.72    \nframe=  113 fps= 35 q=35.0 size=     768KiB time=00:00:03.70 bitrate=1700.5kbits/s speed=1.13x elapsed=0:00:03.27    \n[mp4 @ 0000016ac988c680] Starting second pass: moving the moov atom to the beginning of the file\n[out#0/mp4 @ 0000016ac988c580] video:1313KiB audio:0KiB subtitle:0KiB other streams:0KiB global headers:0KiB muxing overhead: 0.198967%\nframe=  150 fps= 40 q=-1.0 Lsize=    1316KiB time=00:00:04.93 bitrate=2184.5kbits/s speed=1.33x elapsed=0:00:03.70    \n[libx264 @ 0000016acb71b240] frame I:1     Avg QP:32.14  size: 39315\n[libx264 @ 0000016acb71b240] frame P:38    Avg QP:33.64  size: 17574\n[libx264 @ 0000016acb71b240] frame B:111   Avg QP:37.65  size:  5735\n[libx264 @ 0000016acb71b240] consecutive B-frames:  1.3%  0.0%  0.0% 98.7%\n[libx264 @ 0000016acb71b240] mb I  I16..4: 49.2% 47.8%  3.0%\n[libx264 @ 0000016acb71b240] mb P  I16..4:  2.7%  7.4%  0.3%  P16..4: 39.3%  5.3%  2.6%  0.0%  0.0%    skip:42.5%\n[libx264 @ 0000016acb71b240] mb B  I16..4:  0.1%  0.6%  0.0%  B16..8: 35.6%  2.0%  0.2%  direct: 0.8%  skip:60.8%  L0:38.5% L1:60.3% BI: 1.2%\n[libx264 @ 0000016acb71b240] 8x8 transform intra:68.2% inter:81.6%\n[libx264 @ 0000016acb71b240] direct mvs  spatial:91.0% temporal:9.0%\n[libx264 @ 0000016acb71b240] coded y,uvDC,uvAC intra: 39.2% 41.8% 7.5% inter: 4.1% 4.2% 0.0%\n[libx264 @ 0000016acb71b240] i16 v,h,dc,p: 13% 41%  8% 38%\n[libx264 @ 0000016acb71b240] i8 v,h,dc,ddl,ddr,vr,hd,vl,hu:  9%  7% 11%  8% 15% 12% 16%  9% 13%\n[libx264 @ 0000016acb71b240] i4 v,h,dc,ddl,ddr,vr,hd,vl,hu:  8%  7% 15%  7% 15% 11% 14%  8% 15%\n[libx264 @ 0000016acb71b240] i8c dc,h,v,p: 50% 28% 12%  9%\n[libx264 @ 0000016acb71b240] Weighted P-Frames: Y:13.2% UV:0.0%\n[libx264 @ 0000016acb71b240] ref P L0: 50.2% 22.0% 16.5%  5.1%  5.5%  0.6%\n[libx264 @ 0000016acb71b240] ref B L0: 88.1%  8.6%  2.6%  0.7%\n[libx264 @ 0000016acb71b240] ref B L1: 96.1%  3.9%\n[libx264 @ 0000016acb71b240] kb/s:2149.89\n",
  "seconds": 3.949084997177124,
  "probe_out": {}
}